<svg width="13" height="18" viewBox="0 0 13 18" fill="none" xmlns="http://www.w3.org/2000/svg">
<path d="M6.11381 11.563C7.7747 11.563 8.89309 10.3262 8.89309 8.55811V3.00488C8.89309 1.22852 7.7747 0 6.11381 0C4.44457 0 3.32618 1.22852 3.32618 3.00488V8.55811C3.32618 10.3262 4.44457 11.563 6.11381 11.563ZM0.137939 8.69092C0.137939 11.9448 2.2996 14.2275 5.4795 14.4932V16.4272H2.38306C2.03252 16.4272 1.74875 16.7095 1.74875 17.0581C1.74875 17.4067 2.03252 17.6807 2.38306 17.6807H9.83621C10.1867 17.6807 10.4705 17.4067 10.4705 17.0581C10.4705 16.7095 10.1867 16.4272 9.83621 16.4272H6.73977V14.4932C9.92801 14.2275 12.0813 11.9448 12.0813 8.69092V7.00586C12.0813 6.65723 11.8059 6.3833 11.4554 6.3833C11.1048 6.3833 10.8211 6.65723 10.8211 7.00586V8.64111C10.8211 11.4717 8.9682 13.3477 6.11381 13.3477C3.25107 13.3477 1.39821 11.4717 1.39821 8.64111V7.00586C1.39821 6.65723 1.12279 6.3833 0.763903 6.3833C0.413364 6.3833 0.137939 6.65723 0.137939 7.00586V8.69092Z" fill="#C4C4C4"/>
</svg>
