<svg width="16" height="16" viewBox="0 0 16 16" fill="none" xmlns="http://www.w3.org/2000/svg">
<path d="M6.5676 12.7666C7.9614 12.7666 9.24671 12.3184 10.2983 11.5713L14.2544 15.5059C14.438 15.6885 14.68 15.7798 14.9388 15.7798C15.4813 15.7798 15.8652 15.3647 15.8652 14.8335C15.8652 14.5845 15.7817 14.3438 15.5981 14.1694L11.6671 10.2515C12.4934 9.17236 12.9858 7.83594 12.9858 6.3833C12.9858 2.87207 10.098 0 6.5676 0C3.04553 0 0.149414 2.86377 0.149414 6.3833C0.149414 9.89453 3.03718 12.7666 6.5676 12.7666ZM6.5676 11.3887C3.81337 11.3887 1.53487 9.12256 1.53487 6.3833C1.53487 3.64404 3.81337 1.37793 6.5676 1.37793C9.32182 1.37793 11.6003 3.64404 11.6003 6.3833C11.6003 9.12256 9.32182 11.3887 6.5676 11.3887Z" fill="#C4C4C4"/>
</svg>
